# xmcd
#
# Track frame offsets: 
#        150
#        16667
#        34957
#        55297
#        74522
#        96427
#        113495
#        131355
#        145692
#        161267
#        177490
#
# Disc length: 2614 seconds
#
# Revision: 1
# Processed by: cddbd v1.5.2PL0 Copyright (c) Steve Scherf et al.
# Submitted via: ExactAudioCopyFreeDBPlugin 1.0
#
DISCID=8f0a340b
DTITLE=Floyd Miles - Mountain to Climb
DYEAR=1999
DGENRE=Rhythm and Blues
TTITLE0=Canine Potential
TTITLE1=Mountain to Climb
TTITLE2=Little Bit of You
TTITLE3=Not Like I Been Hurt by You
TTITLE4=Don't Need No Man
TTITLE5=Swamp Rose
TTITLE6=Goin' Fishin'
TTITLE7=Arthritis
TTITLE8=The More I Change
TTITLE9=Walked Out Slow
TTITLE10=Spending Christmas with the Blues
EXTD=YEAR: 1999
EXTT0=
EXTT1=
EXTT2=
EXTT3=
EXTT4=
EXTT5=
EXTT6=
EXTT7=
EXTT8=
EXTT9=
EXTT10=
PLAYORDER=
